<?xml version="1.0" encoding="utf-8"?>
<!-- Generator: Adobe Illustrator 16.0.0, SVG Export Plug-In . SVG Version: 6.00 Build 0)  -->
<!DOCTYPE svg PUBLIC "-//W3C//DTD SVG 1.1//EN" "http://www.w3.org/Graphics/SVG/1.1/DTD/svg11.dtd">
<svg version="1.1" id="Layer_1" xmlns="http://www.w3.org/2000/svg" xmlns:xlink="http://www.w3.org/1999/xlink" x="0px" y="0px"
	 width="716.928px" height="293.666px" viewBox="0 0 716.928 293.666" enable-background="new 0 0 716.928 293.666"
	 xml:space="preserve">
<g>
	<path fill="#FFFFFF" d="M669.426,36.649C618.824-9.502,533.149,2.046,478.066,62.443c-55.083,60.396-58.716,146.77-8.114,192.921
		c50.603,46.15,136.278,34.602,191.361-25.794C716.396,169.174,720.029,82.8,669.426,36.649z M527.623,79.297L501.4,228.017
		c-1.091,6.186-4.302,9.278-9.627,9.278c-5.329,0-7.444-3.094-6.354-9.278l26.226-148.72c1.119-6.355,4.343-9.536,9.671-9.536
		C526.639,69.761,528.744,72.942,527.623,79.297z M671.141,79.554c-0.938,5.327-4.674,7.989-11.203,7.989h-38.66l-24.769,140.474
		c-0.607,3.438-1.978,5.842-4.109,7.215c-2.134,1.375-4.401,2.062-6.806,2.062c-5.672,0-7.961-3.094-6.869-9.277l24.768-140.474
		h-39.177c-6.533,0-9.325-2.662-8.386-7.989c0.938-5.324,4.671-7.989,11.203-7.989h95.623
		C669.283,71.565,672.08,74.23,671.141,79.554z"/>
	<g>
		<path fill="#FFFFFF" d="M74.943,92.566c-1.418,3.992-3.047,8.023-4.885,12.093c-1.84,4.071-16.623,35.256-44.354,93.556h-6.459
			L13.492,83.033h7.879l3.702,81.226l0.314,13l-0.158,6.775h0.474c4.465-11.869,8.93-22.322,13.395-31.356l34.191-69.645h8.271
			l4.808,69.172c0.995,13.972,1.495,24.737,1.495,32.302h0.474c1.576-4.517,3.19-8.797,4.846-12.842
			c1.654-4.044,14.613-33.588,38.879-88.632h8.51c-8.877,19.172-17.557,38.368-26.039,57.591
			c-8.481,19.225-17.108,38.421-25.879,57.591h-6.146l-6.146-84.692c-0.577-7.457-0.866-13.208-0.866-17.253l0.08-3.703
			L74.943,92.566L74.943,92.566z"/>
		<path fill="#FFFFFF" d="M239.365,126.443c0,13.393-2.471,26.039-7.405,37.934c-4.938,11.896-11.556,20.772-19.854,26.629
			c-8.299,5.857-17.883,8.784-28.756,8.784c-13.131,0-23.24-3.911-30.332-11.738c-7.09-7.824-10.635-19.117-10.635-33.877
			c0-13.76,2.44-26.3,7.326-37.619c4.885-11.317,11.582-20.011,20.09-26.077s18.303-9.1,29.387-9.1
			c12.973,0,22.912,3.9,29.818,11.699C235.91,100.878,239.365,112,239.365,126.443z M198.082,88.785
			c-9.14,0-17.24,2.652-24.306,7.957c-7.063,5.306-12.696,13.131-16.897,23.478c-4.203,10.348-6.303,21.298-6.303,32.854
			c0,12.867,2.875,22.662,8.627,29.386c5.75,6.724,14.141,10.084,25.17,10.084c8.877,0,16.754-2.586,23.637-7.76
			c6.879-5.173,12.395-13.052,16.543-23.636c4.148-10.582,6.225-21.889,6.225-33.916c0-12.605-2.746-22.164-8.231-28.678
			C217.055,92.042,208.9,88.785,198.082,88.785z"/>
		<path fill="#FFFFFF" d="M270.643,148.345l-10.322,49.87h-8.112L276.63,83.033h23.87c22.584,0,33.877,9.454,33.877,28.362
			c0,9.56-2.717,17.517-8.154,23.871c-5.436,6.355-12.828,10.348-22.178,11.976c10.559,31.04,16.36,48.032,17.412,50.973h-8.744
			l-16.625-49.87H270.643z M272.375,141.097h19.854c10.924,0,19.248-2.508,24.976-7.523c5.723-5.016,8.586-12.408,8.586-22.178
			c0-14.075-8.64-21.114-25.918-21.114h-16.625L272.375,141.097z"/>
		<path fill="#FFFFFF" d="M411.506,198.215h-8.746l-26.943-62.081l-14.969,12.055l-10.32,50.026h-8.114l24.424-115.182h8.035
			l-12.447,56.961l10.479-9.533l53.572-47.428h10.871l-55.068,48.059L411.506,198.215z"/>
	</g>
</g>
</svg>
